<svg width="17" height="17" viewBox="0 0 17 17" fill="none" xmlns="http://www.w3.org/2000/svg">
<path d="M6.46154 0H9.69231C10.1207 0 10.5316 0.170192 10.8346 0.473135C11.1375 0.776079 11.3077 1.18696 11.3077 1.61538V3.23077H14.5385C14.9669 3.23077 15.3778 3.40096 15.6807 3.7039C15.9837 4.00685 16.1538 4.41773 16.1538 4.84615V9.31269C15.6854 8.88462 15.1442 8.56154 14.5385 8.35154V4.84615H1.61538V13.7308H8.14154C8.23846 14.3123 8.44038 14.8535 8.72308 15.3462H1.61538C1.18696 15.3462 0.776079 15.176 0.473135 14.873C0.170192 14.5701 0 14.1592 0 13.7308V4.84615C0 4.41773 0.170192 4.00685 0.473135 3.7039C0.776079 3.40096 1.18696 3.23077 1.61538 3.23077H4.84615V1.61538C4.84615 1.18696 5.01635 0.776079 5.31929 0.473135C5.62223 0.170192 6.03311 0 6.46154 0ZM9.69231 3.23077V1.61538H6.46154V3.23077H9.69231ZM9.69231 12.1154H12.1154V9.69231H13.7308V12.1154H16.1538V13.7308H13.7308V16.1538H12.1154V13.7308H9.69231V12.1154Z" fill="#212121"/>
</svg>
