<svg width="26" height="26" viewBox="0 0 26 26" fill="none" xmlns="http://www.w3.org/2000/svg">
<g clip-path="url(#clip0_296_670)">
<path d="M0 19.731V6.23746C0.0257567 6.11442 0.0543809 5.99139 0.0772758 5.86549C0.252341 4.77393 0.683978 3.73949 1.33671 2.84715C1.98944 1.95481 2.84464 1.23006 3.83203 0.732447C4.58794 0.351351 5.4025 0.0998782 6.24172 -0.0114746H19.7383C20.1074 0.0772235 20.4823 0.125867 20.8515 0.223148C23.7592 0.992819 25.9771 3.80255 26.0029 6.80398C26.02 10.9127 26.0029 15.0214 26.0029 19.1273C25.9923 19.8093 25.8735 20.4854 25.6509 21.1302C25.1727 22.5494 24.2583 23.7814 23.0382 24.6503C21.8182 25.5192 20.3547 25.9805 18.8568 25.9685C14.9504 25.937 11.0468 25.9685 7.14034 25.9685C6.80183 25.977 6.46316 25.9598 6.12725 25.917C4.96415 25.7681 3.85695 25.33 2.90701 24.6427C1.95707 23.9554 1.19473 23.0408 0.689718 21.9828C0.348373 21.271 0.115868 20.5119 0 19.731ZM24.4374 12.5551C24.4002 10.8812 24.5204 8.7725 24.3888 6.67236C24.2571 4.57222 23.204 3.10727 21.3924 2.13445C20.5567 1.71698 19.6303 1.51347 18.6965 1.54218C15.3901 1.54218 12.0847 1.54218 8.78018 1.54218C8.07903 1.54218 7.37788 1.51928 6.67672 1.57651C4.61905 1.74532 3.12515 2.76392 2.14926 4.56077C1.72238 5.40159 1.51469 6.33652 1.54541 7.27894C1.54541 10.5846 1.54541 13.8893 1.54541 17.1931C1.54541 17.8941 1.52252 18.5951 1.57975 19.2961C1.7486 21.3533 2.76742 22.8469 4.56467 23.8226C5.39746 24.2465 6.32356 24.4541 7.25767 24.4263C10.8178 24.4263 14.377 24.4263 17.9353 24.4263C18.3903 24.4263 18.8482 24.4263 19.3032 24.392C20.2588 24.3389 21.1828 24.032 21.9802 23.5029C22.7775 22.9738 23.4193 22.2417 23.8393 21.3819C24.2538 20.5626 24.4584 19.6532 24.4346 18.7353C24.4431 16.8211 24.4374 14.9013 24.4374 12.5551Z" fill="#EBB218"/>
<path d="M20.1103 12.9871C20.1111 13.9232 19.927 14.8501 19.5687 15.7149C19.2105 16.5797 18.685 17.3652 18.0224 18.0266C17.3599 18.6879 16.5733 19.212 15.7078 19.5688C14.8422 19.9256 13.9148 20.1081 12.9785 20.1059C12.0426 20.1051 11.1159 19.9197 10.2517 19.5603C9.3875 19.2009 8.60272 18.6745 7.94234 18.0114C7.28196 17.3482 6.75895 16.5613 6.40329 15.6957C6.04762 14.8301 5.86629 13.9029 5.86968 12.9671C5.87079 12.0303 6.05697 11.103 6.41752 10.2384C6.77807 9.3738 7.30589 8.5889 7.97067 7.92878C8.63546 7.26865 9.42413 6.74632 10.2914 6.39176C11.1586 6.03719 12.0874 5.85739 13.0243 5.86266C14.9083 5.87024 16.7123 6.62456 18.0407 7.96016C19.369 9.29577 20.1133 11.1036 20.1103 12.9871ZM13.2418 18.5093C13.9977 18.4764 14.7387 18.2884 15.4189 17.9572C16.0991 17.626 16.7039 17.1585 17.1958 16.5838C17.6877 16.009 18.0563 15.3394 18.2785 14.6163C18.5007 13.8933 18.5719 13.1323 18.4876 12.3805C18.4095 11.6577 18.1897 10.9573 17.8408 10.3194C17.4918 9.68154 17.0206 9.11866 16.4539 8.66295C15.8873 8.20724 15.2364 7.86764 14.5384 7.66355C13.8404 7.45947 13.1091 7.3949 12.3861 7.47354C11.6609 7.55012 10.9579 7.76933 10.3177 8.11854C9.67751 8.46775 9.11269 8.94008 8.65574 9.50834C8.1988 10.0766 7.85875 10.7296 7.65516 11.4297C7.45157 12.1299 7.38846 12.8634 7.46946 13.588C7.61919 14.993 8.30272 16.2869 9.37898 17.2027C10.4552 18.1185 11.8421 18.5862 13.2533 18.5093H13.2418Z" fill="#EBB218"/>
<path d="M19.0003 5.4847C19.0045 5.08875 19.1652 4.71053 19.4473 4.43244C19.7294 4.15435 20.11 3.99892 20.5062 4.00001C20.9025 4.00633 21.2806 4.16729 21.5598 4.4485C21.8389 4.72971 21.9969 5.10885 22 5.50493C21.999 5.70401 21.9584 5.90091 21.8805 6.08418C21.8027 6.26745 21.6892 6.43345 21.5467 6.57252C21.4041 6.71159 21.2353 6.82098 21.0501 6.89431C20.8649 6.96765 20.6669 7.00349 20.4678 6.99973C20.2717 6.9971 20.0781 6.95576 19.898 6.8781C19.718 6.80043 19.5551 6.68796 19.4187 6.54717C19.2824 6.40637 19.1752 6.24002 19.1034 6.05768C19.0316 5.87534 18.9965 5.68062 19.0003 5.4847ZM20.5001 5.13072C20.4507 5.12909 20.4015 5.13741 20.3554 5.15518C20.3093 5.17295 20.2673 5.19981 20.2318 5.23416C20.1963 5.26851 20.168 5.30964 20.1488 5.35512C20.1295 5.40059 20.1196 5.44948 20.1196 5.49886C20.1191 5.54827 20.1283 5.5973 20.1467 5.64315C20.1651 5.689 20.1924 5.73077 20.227 5.76608C20.2616 5.8014 20.3028 5.82956 20.3483 5.84895C20.3937 5.86835 20.4426 5.87861 20.492 5.87914C20.5414 5.88022 20.5905 5.87137 20.6365 5.8531C20.6824 5.83483 20.7241 5.80752 20.7592 5.7728C20.7944 5.73808 20.8221 5.69665 20.8409 5.65097C20.8597 5.6053 20.8691 5.55632 20.8685 5.50695C20.8702 5.45778 20.8618 5.40879 20.844 5.36294C20.8262 5.31708 20.7992 5.27531 20.7648 5.24015C20.7304 5.20499 20.6892 5.17716 20.6437 5.15835C20.5982 5.13955 20.5494 5.13014 20.5001 5.13072Z" fill="#EBB218"/>
<path d="M21.5 5.5L20.5 4.5L19.5 5.5L20.5 6.5L21.5 5.5Z" fill="#EBB218"/>
</g>
<defs>
<clipPath id="clip0_296_670">
<rect width="26" height="26" fill="white"/>
</clipPath>
</defs>
</svg>
