<svg width="40" height="40" viewBox="0 0 40 40" fill="none" xmlns="http://www.w3.org/2000/svg">
<path d="M18.3866 0H21.5855C22.5412 0.0922469 23.4902 0.24342 24.4273 0.452656C31.9457 2.3844 36.8872 7.0485 39.2518 14.445C39.6307 15.7412 39.8802 17.0718 39.9968 18.4172V21.6166C39.8737 22.5404 39.7629 23.4642 39.5566 24.388C38.9777 26.9549 37.8984 29.3825 36.3804 31.5318C34.8625 33.6811 32.9357 35.5099 30.7103 36.9136C28.485 38.3174 26.0047 39.2684 23.4114 39.7124C20.8181 40.1564 18.1627 40.0846 15.5972 39.5012C4.87986 37.0839 -2.03825 26.4511 0.511015 15.5504C2.29673 7.95689 7.13355 3.03926 14.5812 0.708237C15.8249 0.354127 17.0989 0.117018 18.3866 0ZM14.3657 19.9692C14.3657 21.8168 14.3657 23.6644 14.3657 25.5119C14.3657 26.7775 15.3694 27.4242 16.4931 26.8668C20.2062 25.0192 23.9121 23.1717 27.6108 21.3241C27.883 21.2236 28.1176 21.0417 28.2829 20.8031C28.4481 20.5646 28.5359 20.281 28.5344 19.9908C28.5344 19.3287 28.1588 18.9469 27.6108 18.6728C23.9367 16.8417 20.2647 15.0064 16.5948 13.1671C15.3632 12.5512 14.3811 13.1671 14.3811 14.5343C14.3708 16.3408 14.3657 18.1524 14.3657 19.9692Z" fill="white"/>
</svg>
